<svg width="109" height="36" fill="none" xmlns="http://www.w3.org/2000/svg"><path d="M.304.536h7.85l3.5 25.05h.1l3.5-25.05h7.85v35h-5.2v-26.5h-.1l-4 26.5h-4.6l-4-26.5h-.1v26.5h-4.8v-35Zm31.954 20.1-6.65-20.1h5.85l3.75 12.85h.1l3.75-12.85h5.35l-6.65 20.1v14.9h-5.5v-14.9ZM46.886.536h14.55v5h-9.05v9.75h7.1v5h-7.1v15.25h-5.5v-35Zm17.187 0h5.5v30h9.05v5h-14.55v-35Zm17.188 0h5.5v35h-5.5v-35Zm14.469 17.1L89.68.536h5.8l3.7 11.3h.1l3.8-11.3h5.2l-6.05 17.1 6.35 17.9h-5.8l-4-12.2h-.1l-4.1 12.2h-5.2l6.35-17.9Z" fill="#DF0C13"/></svg>