<svg width="109" height="36" viewBox="0 0 109 36" fill="none" xmlns="http://www.w3.org/2000/svg">
<path d="M0.303532 0.5361H8.15353L11.6535 25.5861H11.7535L15.2535 0.5361H23.1035V35.5361H17.9035V9.0361H17.8035L13.8035 35.5361H9.20353L5.20353 9.0361H5.10353V35.5361H0.303532V0.5361ZM32.2578 20.6361L25.6078 0.5361H31.4578L35.2078 13.3861H35.3078L39.0578 0.5361H44.4078L37.7578 20.6361V35.5361H32.2578V20.6361ZM46.8856 0.5361H61.4356V5.5361H52.3856V15.2861H59.4856V20.2861H52.3856V35.5361H46.8856V0.5361ZM64.0731 0.5361H69.5731V30.5361H78.6231V35.5361H64.0731V0.5361ZM81.2606 0.5361H86.7606V35.5361H81.2606V0.5361ZM95.7297 17.6361L89.6797 0.5361H95.4797L99.1797 11.8361H99.2797L103.08 0.5361H108.28L102.23 17.6361L108.58 35.5361H102.78L98.7797 23.3361H98.6797L94.5797 35.5361H89.3797L95.7297 17.6361Z" fill="#DF0C13"/>
</svg>
